<svg xmlns="http://www.w3.org/2000/svg" width="15.647" height="18" viewBox="0 0 15.647 18">
  <g id="Group_2378" data-name="Group 2378" transform="translate(-805 -347)">
    <path id="Path_9" data-name="Path 9" d="M820.647,362.6l-1.127-11.673a.469.469,0,0,0-.486-.406h-2.375a3.849,3.849,0,0,0-7.669,0h-2.375a.475.475,0,0,0-.486.406L805,362.6v.041A2.674,2.674,0,0,0,807.9,365h9.85a2.674,2.674,0,0,0,2.9-2.359Zm-7.823-14.706a2.757,2.757,0,0,1,2.862,2.627h-5.723a2.758,2.758,0,0,1,2.862-2.627Zm4.925,16.208H807.9a1.75,1.75,0,0,1-1.925-1.446l1.087-11.241h1.929v1.569a.488.488,0,0,0,.973,0v-1.569h5.723v1.569a.488.488,0,0,0,.973,0v-1.569h1.93l1.086,11.245a1.751,1.751,0,0,1-1.925,1.442Zm0,0" transform="translate(0 0)" fill="#292929"/>
  </g>
</svg>
