<svg xmlns="http://www.w3.org/2000/svg" width="19" height="17" viewBox="0 0 19 17">
  <g id="Group_2371" data-name="Group 2371" transform="translate(-763 -366)">
    <path id="Path_8" data-name="Path 8" d="M771.62,382.63a1.249,1.249,0,0,0,.887.37,1.265,1.265,0,0,0,.887-.37l6.962-7.007a5.655,5.655,0,0,0,0-7.966,5.569,5.569,0,0,0-7.857-.055,5.573,5.573,0,0,0-7.865.043,5.654,5.654,0,0,0,0,7.966Zm-6.307-14.306a4.624,4.624,0,0,1,6.571,0l.286.288a.474.474,0,0,0,.337.14.48.48,0,0,0,.337-.14l.279-.281a4.623,4.623,0,0,1,6.571,0,4.695,4.695,0,0,1,0,6.613l-6.966,7.01a.32.32,0,0,1-.434,0l-6.974-7.018a4.695,4.695,0,0,1,0-6.613Zm0,0" fill="gray"/>
  </g>
</svg>
