<svg xmlns="http://www.w3.org/2000/svg" width="24" height="25" viewBox="0 0 24 25">
  <g id="zoom-in" transform="translate(-0.983)">
    <path id="Path_83" data-name="Path 83" d="M21.042,16.3H18.218V13.472a.471.471,0,1,0-.941,0V16.3H14.454a.472.472,0,0,0,0,.944h2.824V20.08a.471.471,0,1,0,.941,0V17.248h2.824a.472.472,0,0,0,0-.944Z" transform="translate(-6.882 -6.864)" fill="gray"/>
    <path id="Path_84" data-name="Path 84" d="M24.852,24.2l-6.993-7.294a9.882,9.882,0,1,0-.7.636l7.009,7.312a.47.47,0,0,0,.665.013A.473.473,0,0,0,24.852,24.2ZM1.924,9.912a8.941,8.941,0,1,1,8.941,8.968A8.965,8.965,0,0,1,1.924,9.912Z" transform="translate(0 0)" fill="gray"/>
  </g>
</svg>
